<svg width="21" height="21" viewBox="0 0 21 21" fill="none" xmlns="http://www.w3.org/2000/svg">
<path d="M15.352 11.648C15.9043 11.648 16.352 11.2003 16.352 10.648V10.352C16.352 9.79971 15.9043 9.352 15.352 9.352H12.648C12.0957 9.352 11.648 8.90428 11.648 8.352V5.648C11.648 5.09572 11.2003 4.648 10.648 4.648H10.352C9.79972 4.648 9.352 5.09572 9.352 5.648V8.352C9.352 8.90428 8.90428 9.352 8.352 9.352H5.648C5.09572 9.352 4.648 9.79971 4.648 10.352V10.648C4.648 11.2003 5.09572 11.648 5.648 11.648H8.352C8.90428 11.648 9.352 12.0957 9.352 12.648V15.352C9.352 15.9043 9.79972 16.352 10.352 16.352H10.648C11.2003 16.352 11.648 15.9043 11.648 15.352V12.648C11.648 12.0957 12.0957 11.648 12.648 11.648H15.352ZM18.648 0C19.2827 0 19.8333 0.233333 20.3 0.699999C20.7667 1.16667 21 1.71733 21 2.352V18.648C21 19.2827 20.7667 19.8333 20.3 20.3C19.8333 20.7667 19.2827 21 18.648 21H2.352C1.69867 21 1.13867 20.7667 0.672 20.3C0.224 19.8333 0 19.2827 0 18.648V2.352C0 1.71733 0.224 1.16667 0.672 0.699999C1.13867 0.233333 1.69867 0 2.352 0H18.648Z" fill="black"/>
</svg>
