<svg width="10" height="5" viewBox="0 0 10 5" fill="none" xmlns="http://www.w3.org/2000/svg">
<path d="M5.00002 4.66666C4.84425 4.66697 4.6933 4.61272 4.57335 4.51333L0.573354 1.18C0.43721 1.06684 0.351594 0.904233 0.335341 0.727948C0.319087 0.551664 0.373529 0.376144 0.486688 0.239999C0.599847 0.103855 0.762454 0.0182387 0.938739 0.00198559C1.11502 -0.0142676 1.29054 0.0401734 1.42669 0.153332L5.00002 3.14L8.57335 0.26C8.64155 0.204622 8.72001 0.163268 8.80424 0.138313C8.88846 0.113359 8.97679 0.105296 9.06414 0.114589C9.15149 0.123882 9.23615 0.150346 9.31324 0.192462C9.39033 0.234578 9.45834 0.291515 9.51335 0.359999C9.57441 0.428547 9.62065 0.508965 9.64918 0.596214C9.6777 0.683463 9.68791 0.775663 9.67914 0.867039C9.67038 0.958414 9.64284 1.047 9.59826 1.12723C9.55367 1.20747 9.49299 1.27764 9.42002 1.33333L5.42002 4.55333C5.29663 4.63701 5.14876 4.67691 5.00002 4.66666V4.66666Z" fill="black"/>
</svg>
