<svg width="41" height="41" viewBox="0 0 41 41" fill="none" xmlns="http://www.w3.org/2000/svg">
<path fill-rule="evenodd" clip-rule="evenodd" d="M20.5 0C16.6548 0 13.425 0.20336 10.7626 0.795031C8.07704 1.39189 5.84488 2.4108 4.12784 4.12784C2.4108 5.84488 1.39189 8.07704 0.795031 10.7626C0.20336 13.425 0 16.6548 0 20.5C0 24.3452 0.20336 27.575 0.795031 30.2373C1.39189 32.923 2.4108 35.155 4.12784 36.8721C5.84488 38.5892 8.07704 39.6081 10.7626 40.205C13.425 40.7966 16.6548 41 20.5 41C24.3452 41 27.575 40.7966 30.2373 40.205C32.923 39.6081 35.155 38.5892 36.8721 36.8721C38.5892 35.155 39.6081 32.923 40.205 30.2373C40.7966 27.575 41 24.3452 41 20.5C41 16.6548 40.7966 13.425 40.205 10.7626C39.6081 8.07704 38.5892 5.84488 36.8721 4.12784C35.155 2.4108 32.923 1.39189 30.2373 0.795031C27.575 0.20336 24.3452 0 20.5 0ZM21.1212 30.6788C27.2971 30.6788 32.303 26.0365 32.303 20.3085C32.303 14.5817 27.2971 9.93939 21.1212 9.93939C14.9453 9.93939 9.93939 14.5817 9.93939 20.3085C9.93939 23.1855 11.2024 25.7875 13.2422 27.6673C12.9079 29.5141 11.9239 30.8747 11.2235 31.6417C10.9952 31.8919 11.1694 32.3333 11.506 32.3014C12.9797 32.168 15.7481 31.7243 17.9621 30.2599C18.9919 30.5394 20.0543 30.6803 21.1212 30.6788Z" fill="black"/>
</svg>
