<svg width="33" height="33" viewBox="0 0 33 33" fill="none" xmlns="http://www.w3.org/2000/svg">
<path fill-rule="evenodd" clip-rule="evenodd" d="M16.5 0C13.4051 0 10.8055 0.16368 8.66262 0.639903C6.50103 1.1203 4.70441 1.9404 3.32241 3.32241C1.9404 4.70441 1.1203 6.50103 0.639903 8.66262C0.16368 10.8055 0 13.4051 0 16.5C0 19.5949 0.16368 22.1945 0.639903 24.3373C1.1203 26.499 1.9404 28.2955 3.32241 29.6776C4.70441 31.0596 6.50103 31.8797 8.66262 32.3601C10.8055 32.8363 13.4051 33 16.5 33C19.5949 33 22.1945 32.8363 24.3373 32.3601C26.499 31.8797 28.2955 31.0596 29.6776 29.6776C31.0596 28.2955 31.8797 26.499 32.3601 24.3373C32.8363 22.1945 33 19.5949 33 16.5C33 13.4051 32.8363 10.8055 32.3601 8.66262C31.8797 6.50103 31.0596 4.70441 29.6776 3.32241C28.2955 1.9404 26.499 1.1203 24.3373 0.639903C22.1945 0.16368 19.5949 0 16.5 0ZM17 24.6927C21.9708 24.6927 26 20.9562 26 16.3459C26 11.7365 21.9708 8 17 8C12.0292 8 8 11.7365 8 16.3459C8 18.6615 9.01653 20.7558 10.6583 22.2688C10.3893 23.7553 9.59726 24.8504 9.03358 25.4677C8.84979 25.6691 8.99 26.0243 9.26095 25.9987C10.4471 25.8914 12.6753 25.5342 14.4573 24.3555C15.2862 24.5805 16.1413 24.6939 17 24.6927Z" fill="#979797"/>
</svg>
