<svg width="23" height="23" viewBox="0 0 23 23" fill="none" xmlns="http://www.w3.org/2000/svg">
<path d="M15.9638 0H6.53625C2.44125 0 0 2.44125 0 6.53625V15.9525C0 20.0588 2.44125 22.5 6.53625 22.5H15.9525C20.0475 22.5 22.4888 20.0588 22.4888 15.9638V6.53625C22.5 2.44125 20.0588 0 15.9638 0ZM15.03 13.8375C15.3562 14.1638 15.3562 14.7037 15.03 15.03C14.8612 15.1987 14.6475 15.2775 14.4338 15.2775C14.22 15.2775 14.0063 15.1987 13.8375 15.03L11.25 12.4425L8.6625 15.03C8.49375 15.1987 8.28 15.2775 8.06625 15.2775C7.8525 15.2775 7.63875 15.1987 7.47 15.03C7.14375 14.7037 7.14375 14.1638 7.47 13.8375L10.0575 11.25L7.47 8.6625C7.14375 8.33625 7.14375 7.79625 7.47 7.47C7.79625 7.14375 8.33625 7.14375 8.6625 7.47L11.25 10.0575L13.8375 7.47C14.1638 7.14375 14.7037 7.14375 15.03 7.47C15.3562 7.79625 15.3562 8.33625 15.03 8.6625L12.4425 11.25L15.03 13.8375Z" fill="#A2F263"/>
</svg>
