<svg width="21" height="21" viewBox="0 0 21 21" fill="none" xmlns="http://www.w3.org/2000/svg">
<path d="M9.25006 2.94452H2.83339C2.34716 2.94452 1.88085 3.13767 1.53703 3.48149C1.19322 3.82531 1.00006 4.29162 1.00006 4.77785V17.6112C1.00006 18.0974 1.19322 18.5637 1.53703 18.9075C1.88085 19.2514 2.34716 19.4445 2.83339 19.4445H15.6667C16.153 19.4445 16.6193 19.2514 16.9631 18.9075C17.3069 18.5637 17.5001 18.0974 17.5001 17.6112V11.1945" stroke="#A2F263" stroke-width="2" stroke-linecap="round" stroke-linejoin="round"/>
<path d="M16.1251 1.56954C16.4897 1.20487 16.9843 1 17.5001 1C18.0158 1 18.5104 1.20487 18.8751 1.56954C19.2397 1.93422 19.4446 2.42882 19.4446 2.94454C19.4446 3.46027 19.2397 3.95487 18.8751 4.31954L10.1667 13.0279L6.50006 13.9445L7.41673 10.2779L16.1251 1.56954Z" stroke="#A2F263" stroke-width="2" stroke-linecap="round" stroke-linejoin="round"/>
</svg>
