<svg width="29" height="29" viewBox="0 0 29 29" fill="none" xmlns="http://www.w3.org/2000/svg">
<rect x="0.473633" width="28.2632" height="28.2632" rx="7" fill="#060518"/>
<g clip-path="url(#clip0_1_6150)">
<path d="M16.9922 15.6515C17.8034 15.6515 18.4609 14.9939 18.4609 14.1827C18.4609 13.3715 17.8034 12.714 16.9922 12.714C16.181 12.714 15.5234 13.3715 15.5234 14.1827C15.5234 14.9939 16.181 15.6515 16.9922 15.6515Z" fill="#A2F263"/>
<path d="M23.2265 16.214L21.6719 12.1202C21.6719 12.1202 21.5078 10.4952 21.3594 9.87021C20.7109 7.07333 17.5859 4.52646 14.1953 4.52646C11.9062 4.52646 9.74217 5.58115 8.32811 7.37802C5.78124 10.628 6.34374 15.3233 9.58592 17.878V24.214H17.5547V22.0968H18.7265C20.3515 22.0968 21.6719 20.7765 21.6719 19.1515V17.0577H22.664C23 17.0577 23.2734 16.7843 23.2734 16.4483C23.2734 16.3624 23.2578 16.2843 23.2265 16.214ZM12.9375 14.3702V15.4796H11.7578V16.6905H10.6406V15.4796H9.42186V14.3702L10.6484 14.378V12.5421C10.1172 12.4561 9.62499 12.2061 9.24217 11.8233C8.24999 10.8311 8.2578 9.22958 9.24999 8.24521C10.2422 7.25302 11.8437 7.25302 12.8359 8.24521C13.1406 8.5499 13.3515 8.91708 13.4687 9.31552C13.8594 10.6593 13.0937 12.0655 11.75 12.464V14.3702H12.9375ZM17.3906 16.6593C16.0234 16.878 14.7422 15.964 14.5234 14.5968C14.3047 13.2296 15.2266 11.9483 16.5859 11.7296L16.5937 8.7999L15.5 9.89365L14.7734 9.16708L17.1094 6.83115L19.4453 9.16708L18.7187 9.89365L17.6094 8.78427V11.7765C18.5703 12.0265 19.2969 12.8077 19.4531 13.7843C19.6719 15.1515 18.7578 16.4405 17.3906 16.6593Z" fill="#A2F263"/>
<path d="M12.0469 9.02646C11.4844 8.47959 10.5859 8.47177 10.0312 9.02646C9.47656 9.58115 9.47656 10.4874 10.0312 11.0421C10.5859 11.5968 11.4922 11.5968 12.0469 11.0421C12.6094 10.4874 12.6094 9.58115 12.0469 9.02646Z" fill="#A2F263"/>
</g>
<defs>
<clipPath id="clip0_1_6150">
<rect width="20" height="20" fill="white" transform="translate(5 4.37021)"/>
</clipPath>
</defs>
</svg>
