<svg width="33" height="33" viewBox="0 0 33 33" fill="none" xmlns="http://www.w3.org/2000/svg">
<path fill-rule="evenodd" clip-rule="evenodd" d="M16.5 0C13.4051 0 10.8055 0.16368 8.66262 0.639903C6.50103 1.1203 4.70441 1.9404 3.32241 3.32241C1.9404 4.70441 1.1203 6.50103 0.639903 8.66262C0.16368 10.8055 0 13.4051 0 16.5C0 19.5949 0.16368 22.1945 0.639903 24.3373C1.1203 26.499 1.9404 28.2955 3.32241 29.6776C4.70441 31.0596 6.50103 31.8797 8.66262 32.3601C10.8055 32.8363 13.4051 33 16.5 33C19.5949 33 22.1945 32.8363 24.3373 32.3601C26.499 31.8797 28.2955 31.0596 29.6776 29.6776C31.0596 28.2955 31.8797 26.499 32.3601 24.3373C32.8363 22.1945 33 19.5949 33 16.5C33 13.4051 32.8363 10.8055 32.3601 8.66262C31.8797 6.50103 31.0596 4.70441 29.6776 3.32241C28.2955 1.9404 26.499 1.1203 24.3373 0.639903C22.1945 0.16368 19.5949 0 16.5 0ZM24.9989 18.2272C24.9981 16.8323 24.9973 15.4375 24.9998 14.0426V14.0424C25.001 13.3571 25.0021 12.7487 24.7339 12.1925C24.4658 11.6364 23.9722 11.2231 23.4164 10.7577L23.416 10.7574C22.6475 10.114 21.877 9.46616 21.1102 8.8215C20.7611 8.52802 20.4128 8.23519 20.0658 7.94372C19.4219 7.40283 18.8647 6.93473 18.3607 6.61016C17.8191 6.26138 17.2239 6 16.5 6C15.776 6 15.1808 6.26138 14.6393 6.61016C14.1353 6.93472 13.5781 7.40281 12.9342 7.94368L12.9341 7.94372C12.5719 8.24798 12.2098 8.5524 11.8477 8.85682C11.0936 9.49082 10.3395 10.1248 9.58397 10.7574C9.02791 11.2229 8.5342 11.6362 8.26603 12.1925C7.99787 12.7487 7.99895 13.3572 8.00016 14.0425V14.0426C8.00265 15.4347 8.00187 16.8268 8.00109 18.2189C8.00071 18.8987 8.00033 19.5784 8.00033 20.2582V20.2584C8.00028 21.1102 8.00023 21.8442 8.0876 22.432C8.18124 23.0619 8.39239 23.6657 8.93389 24.1556C9.47538 24.6453 10.143 24.8363 10.8394 24.921C11.4885 25 12.2988 25 13.2392 25H13.2427H19.7573H19.7607C20.7011 25 21.5114 25 22.1605 24.921C22.857 24.8363 23.5246 24.6453 24.0661 24.1556C24.6076 23.6657 24.8187 23.0619 24.9124 22.432C24.9997 21.8441 24.9997 21.1101 24.9996 20.2582C24.9996 19.5812 24.9993 18.9042 24.9989 18.2272ZM15.4372 20.1949C15.4372 19.6642 15.9129 19.2339 16.4997 19.2339C17.0865 19.2339 17.5621 19.6642 17.5621 20.1949V22.117C17.5621 22.6477 18.0378 23.078 18.6246 23.078C19.2114 23.078 19.687 22.6477 19.687 22.117V20.1949C19.687 18.6026 18.26 17.3119 16.4997 17.3119C14.7393 17.3119 13.3123 18.6026 13.3123 20.1949V22.117C13.3123 22.6477 13.788 23.078 14.3747 23.078C14.9615 23.078 15.4372 22.6477 15.4372 22.117V20.1949Z" fill="#979797"/>
</svg>
