<svg width="29" height="29" viewBox="0 0 29 29" fill="none" xmlns="http://www.w3.org/2000/svg">
<path d="M22.9584 14.5C22.9584 19.1714 19.1714 22.9583 14.5 22.9583C9.82862 22.9583 6.04169 19.1714 6.04169 14.5C6.04169 9.82859 9.82862 6.04166 14.5 6.04166C19.1714 6.04166 22.9584 9.82859 22.9584 14.5Z" stroke="#323232" stroke-width="2"/>
<path d="M22.9583 14.5H25.375" stroke="#323232" stroke-width="2" stroke-linecap="round" stroke-linejoin="round"/>
<path d="M3.625 14.5H6.04167" stroke="#323232" stroke-width="2" stroke-linecap="round" stroke-linejoin="round"/>
<path d="M14.5 22.9583V25.375" stroke="#323232" stroke-width="2" stroke-linecap="round" stroke-linejoin="round"/>
<path d="M14.5 3.625V6.04167" stroke="#323232" stroke-width="2" stroke-linecap="round" stroke-linejoin="round"/>
<path d="M18.125 14.5C18.125 16.5021 16.5021 18.125 14.5 18.125C12.4979 18.125 10.875 16.5021 10.875 14.5C10.875 12.4979 12.4979 10.875 14.5 10.875C16.5021 10.875 18.125 12.4979 18.125 14.5Z" stroke="#323232" stroke-width="2"/>
</svg>
