<svg width="29" height="29" viewBox="0 0 29 29" fill="none" xmlns="http://www.w3.org/2000/svg">
<path d="M20.8956 17.2706C20.4237 17.7425 20.4237 18.5076 20.8956 18.9794C21.3674 19.4513 22.1326 19.4513 22.6044 18.9794L26.1243 15.4596C26.1424 15.4414 26.1601 15.4228 26.177 15.4039C26.4262 15.1825 26.5833 14.8596 26.5833 14.5C26.5833 14.1404 26.4262 13.8176 26.177 13.5962C26.1601 13.5772 26.1424 13.5586 26.1243 13.5405L22.6044 10.0206C22.1326 9.54872 21.3674 9.54872 20.8956 10.0206C20.4237 10.4925 20.4237 11.2576 20.8956 11.7294L22.4578 13.2917H15.7083C15.041 13.2917 14.5 13.8327 14.5 14.5C14.5 15.1674 15.041 15.7084 15.7083 15.7084H22.4578L20.8956 17.2706Z" fill="#A2F263"/>
<path d="M6.04166 2.41669C4.03963 2.41669 2.41666 4.03966 2.41666 6.04169V22.9584C2.41666 24.9604 4.03963 26.5834 6.04166 26.5834H17.5208C19.1892 26.5834 20.5417 25.2309 20.5417 23.5625V20.2186C20.3627 20.1151 20.1943 19.9869 20.0412 19.8338C19.2504 19.0431 19.1222 17.8409 19.6564 16.9167H15.7083C14.3736 16.9167 13.2917 15.8347 13.2917 14.5C13.2917 13.1653 14.3736 12.0834 15.7083 12.0834H19.6564C19.1222 11.1591 19.2504 9.95687 20.0412 9.16618C20.1943 9.0131 20.3627 8.88485 20.5417 8.78144V5.43752C20.5417 3.76916 19.1892 2.41669 17.5208 2.41669H6.04166Z" fill="#A2F263"/>
</svg>
