<svg width="15" height="15" viewBox="0 0 15 15" fill="none" xmlns="http://www.w3.org/2000/svg">
<path d="M11.615 9.71568C11.4409 9.64932 11.2517 9.63294 11.0687 9.66839L8.82425 10.1033C8.60743 10.1453 8.38189 10.1154 8.18693 10.0116C6.52992 9.12988 5.45306 8.1125 4.785 6.61757C4.70767 6.44453 4.69032 6.25122 4.72506 6.06489L5.15524 3.75733C5.18868 3.57795 5.1724 3.39284 5.10817 3.22205L4.43974 1.44472C4.29312 1.05488 3.92024 0.796738 3.50374 0.796738H1.59224C0.809521 0.796738 0.193156 1.44356 0.310055 2.21749C0.601893 4.14961 1.46238 7.65276 3.9777 10.1681C6.61918 12.8096 10.4236 13.9558 12.5175 14.4114C13.326 14.5874 14.0433 13.9566 14.0433 13.1291V11.3301C14.0433 10.9152 13.787 10.5434 13.3993 10.3956L11.615 9.71568Z" fill="#A2F263"/>
</svg>
