<svg width="33" height="33" viewBox="0 0 33 33" fill="none" xmlns="http://www.w3.org/2000/svg">
<path fill-rule="evenodd" clip-rule="evenodd" d="M16.5 0C13.4051 0 10.8055 0.16368 8.66262 0.639903C6.50103 1.1203 4.70441 1.9404 3.32241 3.32241C1.9404 4.70441 1.1203 6.50103 0.639903 8.66262C0.16368 10.8055 0 13.4051 0 16.5C0 19.5949 0.16368 22.1945 0.639903 24.3373C1.1203 26.499 1.9404 28.2955 3.32241 29.6776C4.70441 31.0596 6.50103 31.8797 8.66262 32.3601C10.8055 32.8363 13.4051 33 16.5 33C19.5949 33 22.1945 32.8363 24.3373 32.3601C26.499 31.8797 28.2955 31.0596 29.6776 29.6776C31.0596 28.2955 31.8797 26.499 32.3601 24.3373C32.8363 22.1945 33 19.5949 33 16.5C33 13.4051 32.8363 10.8055 32.3601 8.66262C31.8797 6.50103 31.0596 4.70441 29.6776 3.32241C28.2955 1.9404 26.499 1.1203 24.3373 0.639903C22.1945 0.16368 19.5949 0 16.5 0ZM17 18.0833C19.7842 18.0833 21.875 15.1128 21.875 11.6516C21.875 8.18925 20.0767 6.16667 17 6.16667C13.9233 6.16667 12.125 8.19033 12.125 11.6505C12.125 15.1128 14.2137 18.0833 17 18.0833ZM17 27.8333C10.6571 27.8333 8.86092 26.3167 8.44383 25.8205C8.40486 25.773 8.37601 25.7191 8.35906 25.6601C8.3421 25.601 8.3374 25.5391 8.34525 25.4782C8.44167 24.5227 9.30183 20.25 17 20.25C24.6982 20.25 25.5583 24.5227 25.6537 25.4782C25.6617 25.539 25.6571 25.6009 25.6404 25.6599C25.6236 25.719 25.595 25.774 25.5562 25.8216C25.138 26.3167 23.3429 27.8333 17 27.8333Z" fill="#979797"/>
</svg>
