<svg width="33" height="33" viewBox="0 0 33 33" fill="none" xmlns="http://www.w3.org/2000/svg">
<path fill-rule="evenodd" clip-rule="evenodd" d="M8.66262 0.639903C10.8055 0.16368 13.4051 0 16.5 0C19.5949 0 22.1945 0.16368 24.3373 0.639903C26.499 1.1203 28.2955 1.9404 29.6776 3.32241C31.0596 4.70441 31.8796 6.50103 32.3601 8.66262C32.8363 10.8055 33 13.4051 33 16.5C33 19.5949 32.8363 22.1945 32.3601 24.3373C31.8796 26.499 31.0596 28.2955 29.6776 29.6776C28.2955 31.0596 26.499 31.8796 24.3373 32.3601C22.1945 32.8363 19.5949 33 16.5 33C13.4051 33 10.8055 32.8363 8.66262 32.3601C6.50103 31.8796 4.70441 31.0596 3.32241 29.6776C1.9404 28.2955 1.1203 26.499 0.639903 24.3373C0.16368 22.1945 0 19.5949 0 16.5C0 13.4051 0.16368 10.8055 0.639903 8.66262C1.1203 6.50103 1.9404 4.70441 3.32241 3.32241C4.70441 1.9404 6.50103 1.1203 8.66262 0.639903ZM11.55 15.675C11.55 13.3968 13.3968 11.55 15.675 11.55C17.9532 11.55 19.8 13.3968 19.8 15.675C19.8 17.9532 17.9532 19.8 15.675 19.8C13.3968 19.8 11.55 17.9532 11.55 15.675ZM15.675 8.25C11.5743 8.25 8.25 11.5743 8.25 15.675C8.25 19.7757 11.5743 23.1 15.675 23.1C17.1278 23.1 18.4833 22.6827 19.6279 21.9615L21.9333 24.2667C22.5776 24.911 23.6224 24.911 24.2667 24.2667C24.911 23.6224 24.911 22.5776 24.2667 21.9333L21.9615 19.6279C22.6827 18.4833 23.1 17.1278 23.1 15.675C23.1 11.5743 19.7757 8.25 15.675 8.25Z" fill="#979797"/>
</svg>
