<svg width="37" height="37" viewBox="0 0 37 37" fill="none" xmlns="http://www.w3.org/2000/svg">
<path fill-rule="evenodd" clip-rule="evenodd" d="M9.5188 0.712777C11.8735 0.188907 14.73 0.0088501 18.1308 0.0088501C21.5316 0.0088501 24.3881 0.188907 26.7428 0.712777C29.1181 1.24124 31.0922 2.14339 32.6108 3.66367C34.1294 5.18395 35.0305 7.16032 35.5585 9.53818C36.0817 11.8954 36.2616 14.7551 36.2616 18.1597C36.2616 21.5643 36.0817 24.4239 35.5585 26.7812C35.0305 29.1591 34.1294 31.1354 32.6108 32.6557C31.0922 34.176 29.1181 35.0781 26.7428 35.6067C24.3881 36.1305 21.5316 36.3106 18.1308 36.3106C14.73 36.3106 11.8735 36.1305 9.5188 35.6067C7.14357 35.0781 5.16938 34.176 3.65078 32.6557C2.13218 31.1354 1.23103 29.1591 0.703149 26.7812C0.179858 24.4239 0 21.5643 0 18.1597C0 14.7551 0.179858 11.8954 0.703149 9.53818C1.23103 7.16032 2.13218 5.18395 3.65078 3.66367C5.16938 2.14339 7.14357 1.24124 9.5188 0.712777Z" fill="#A2F263"/>
<g clip-path="url(#clip0_1_6319)">
<path d="M9.83112 22.8808C9.83112 23.77 10.1435 24.527 10.7683 25.1518C11.3932 25.7766 12.1502 26.089 13.0393 26.089H23.7093C24.5865 26.089 25.3375 25.7766 25.9623 25.1518C26.5871 24.527 26.8995 23.77 26.8995 22.8808V18.2668L24.7727 20.0511V22.8808C24.7727 23.1812 24.6706 23.4336 24.4663 23.6378C24.262 23.8421 24.0097 23.9502 23.7093 23.9623H13.0393C12.7389 23.9623 12.4866 23.8541 12.2823 23.6378C12.0781 23.4215 11.9759 23.1692 11.9759 22.8808V12.2108C11.9759 11.9225 12.0781 11.6701 12.2823 11.4539C12.4866 11.2376 12.7389 11.1354 13.0393 11.1474H18.3743V9.02066H13.0393C12.1502 9.02066 11.3932 9.33307 10.7683 9.95789C10.1435 10.5827 9.83112 11.3337 9.83112 12.2108V22.8808ZM13.0393 19.6907C13.0393 20.724 13.2436 21.7153 13.6521 22.6646C13.8444 21.5591 14.2649 20.5558 14.9138 19.6546C15.5626 18.7534 16.3677 18.0265 17.3289 17.4737C18.2902 16.921 19.3476 16.6086 20.5011 16.5365V19.6907L26.8995 14.3557L20.5011 9.02066V12.2108C19.4918 12.2108 18.5245 12.4091 17.5993 12.8056C16.6741 13.2021 15.8811 13.7368 15.2202 14.4097C14.5593 15.0826 14.0246 15.8757 13.6161 16.7888C13.2075 17.702 13.0153 18.6693 13.0393 19.6907Z" fill="black"/>
</g>
<defs>
<clipPath id="clip0_1_6319">
<rect width="18.0236" height="18.0236" fill="white" transform="translate(9.01184 9.02066)"/>
</clipPath>
</defs>
</svg>
