<svg width="25" height="25" viewBox="0 0 25 25" fill="none" xmlns="http://www.w3.org/2000/svg">
<path fill-rule="evenodd" clip-rule="evenodd" d="M8.87499 0.41669H8.79544C7.72427 0.41663 6.80133 0.416581 6.06224 0.515955C5.27016 0.622445 4.5109 0.862589 3.89506 1.47843C3.27922 2.09428 3.03907 2.85354 2.93258 3.64561C2.8332 4.3847 2.83326 5.30765 2.83332 6.37881V6.45836V10.6875V17.5396C1.42539 18.0372 0.416656 19.38 0.416656 20.9584C0.416656 22.9604 2.03963 24.5834 4.04166 24.5834H17.3292H17.3333C19.3354 24.5834 20.9583 22.9604 20.9583 20.9584V8.87503V6.45837H21.5625C23.2308 6.45837 24.5833 5.10589 24.5833 3.43754C24.5833 1.76917 23.2308 0.416702 21.5625 0.416702C21.4369 0.416702 21.3132 0.424351 21.1918 0.439225C21.1162 0.424435 21.0382 0.41669 20.9583 0.41669H8.87499ZM13.9146 22.1667C13.7811 21.7887 13.7083 21.382 13.7083 20.9584V19.75H4.04166C3.37432 19.75 2.83332 20.291 2.83332 20.9584C2.83332 21.6257 3.37432 22.1667 4.04166 22.1667H13.9146ZM20.9583 4.0417H21.5625C21.8961 4.0417 22.1667 3.7712 22.1667 3.43754C22.1667 3.10385 21.8961 2.83337 21.5625 2.83337C21.2289 2.83337 20.9583 3.10385 20.9583 3.43754V4.0417ZM7.66666 6.45836C7.66666 5.79102 8.20765 5.25002 8.87499 5.25002H14.9167C15.584 5.25002 16.125 5.79102 16.125 6.45836C16.125 7.12569 15.584 7.66669 14.9167 7.66669H8.87499C8.20765 7.66669 7.66666 7.12569 7.66666 6.45836ZM8.87499 10.0834C8.20765 10.0834 7.66666 10.6243 7.66666 11.2917C7.66666 11.9591 8.20765 12.5 8.87499 12.5H14.9167C15.584 12.5 16.125 11.9591 16.125 11.2917C16.125 10.6243 15.584 10.0834 14.9167 10.0834H8.87499Z" fill="#A2F263"/>
</svg>
